<?xml version="1.0" encoding="UTF-8" standalone="no"?>
<svg
   version="1.1"
   id="Layer_1"
   x="0px"
   y="0px"
   viewBox="0 0 80 55"
   xml:space="preserve"
   sodipodi:docname="page_icon.svg"
   width="80"
   height="55"
   inkscape:version="1.2.1 (9c6d41e410, 2022-07-14)"
   xmlns:inkscape="http://www.inkscape.org/namespaces/inkscape"
   xmlns:sodipodi="http://sodipodi.sourceforge.net/DTD/sodipodi-0.dtd"
   xmlns="http://www.w3.org/2000/svg"
   xmlns:svg="http://www.w3.org/2000/svg"><defs
     id="defs11" /><sodipodi:namedview
     id="namedview9"
     pagecolor="#ffffff"
     bordercolor="#000000"
     borderopacity="0.25"
     inkscape:showpageshadow="2"
     inkscape:pageopacity="0.0"
     inkscape:pagecheckerboard="0"
     inkscape:deskcolor="#d1d1d1"
     showgrid="false"
     inkscape:zoom="2.8051825"
     inkscape:cx="-3.3865889"
     inkscape:cy="-14.972288"
     inkscape:window-width="1920"
     inkscape:window-height="1145"
     inkscape:window-x="-8"
     inkscape:window-y="-8"
     inkscape:window-maximized="1"
     inkscape:current-layer="Layer_1" /><style
     type="text/css"
     id="style2">.st0{fill-rule:evenodd;clip-rule:evenodd;fill:#FB503B;}</style><g
     id="g6"
     transform="matrix(0.65106515,0,0,0.65106515,0.00114481,-8.3208509e-4)"><path
       class="st0"
       d="m 122.39,39.31 c -0.88,-0.88 -12.12,-15.04 -14.02,-17.38 -2.04,-2.34 -2.92,-1.9 -4.24,-1.75 -1.31,0.15 -15.48,2.63 -17.09,2.77 -1.61,0.29 -2.63,0.88 -1.61,2.34 0.88,1.31 10.22,14.46 12.27,17.53 L 60.46,51.73 30.96,2.21 C 29.79,0.46 29.5,-0.13 26.87,0.02 24.24,0.17 3.65,1.92 2.19,1.92 0.72,2.07 -0.88,2.65 0.58,6.16 c 1.46,3.5 24.83,53.74 25.41,55.2 0.58,1.46 2.34,3.8 6.28,2.92 4.09,-1.02 18.11,-4.67 25.85,-6.72 4.09,7.3 12.27,22.2 13.88,24.39 2.04,2.92 3.51,2.34 6.57,1.46 2.48,-0.73 38.27,-13.58 39.87,-14.31 1.61,-0.73 2.63,-1.17 1.46,-2.78 -0.88,-1.17 -10.22,-13.88 -15.19,-20.45 3.36,-0.88 15.48,-4.09 16.8,-4.53 1.46,-0.42 1.75,-1.15 0.88,-2.03 z M 54.76,53.19 C 54.32,53.34 33.44,58.3 32.41,58.59 31.24,58.88 31.24,58.74 31.24,58.3 30.96,57.86 6.42,7.03 5.98,6.45 5.69,5.87 5.69,5.28 5.98,5.28 c 0.29,0 19.72,-1.75 20.3,-1.75 0.73,0 0.58,0.15 0.88,0.58 0,0 27.31,47.18 27.75,47.91 0.58,0.73 0.29,1.02 -0.15,1.17 z m 58.72,10.95 c 0.29,0.58 0.73,0.88 -0.44,1.17 -1.02,0.44 -35.2,11.98 -35.93,12.27 -0.73,0.29 -1.17,0.44 -2.04,-0.88 C 74.19,75.39 63.09,56.25 63.09,56.25 l 36.37,-9.49 c 0.88,-0.29 1.17,-0.44 1.75,0.44 0.58,1.02 11.98,16.5 12.27,16.94 z m 2.33,-25.71 c -0.88,0.15 -14.17,3.51 -14.17,3.51 L 90.69,27.04 c -0.29,-0.44 -0.58,-0.88 0.15,-1.02 0.73,-0.15 13.15,-2.34 13.73,-2.48 0.58,-0.15 1.02,-0.29 1.75,0.73 0.73,0.88 10.08,12.85 10.52,13.29 0.43,0.44 -0.15,0.73 -1.03,0.87 z"
       id="path4" /></g></svg>
